#Comment line ignore any data following # character 
#Hierarchical Translation and Rotation (.htr) file 
[Header]	
#Header keywords are followed by a single value 
FileType HTR		#Single word string
DataType HTRS		#Translation followed by rotation and scale data
FileVersion 1		#integer
NumSegments 64		#integer
NumFrames 3		#integer
DataFrameRate 30		#integer, data frame rate in this file
EulerRotationOrder ZYX
CalibrationUnits mm
RotationUnits Degrees
GlobalAxisofGravity Y
BoneLengthAxis Y
ScaleFactor 1.00
[SegmentNames&Hierarchy]
#CHILD	PARENT
Pinger_Root GLOBAL
Pelvis Pinger_Root
L_Hip Pelvis
R_Hip Pelvis
Rear_Leg01 Pelvis
Spine1 Pelvis
L_Leg01 L_Hip
L_Leg02 L_Leg01
L_Leg03 L_Leg02
L_Foot L_Leg03
L_Toe1_01 L_Foot
L_Toe2_01 L_Foot
L_Toe3_01 L_Foot
planeAlignerLeft L_Foot
L_Toe1_02 L_Toe1_01
L_Toe1_03 L_Toe1_02
L_Toe2_02 L_Toe2_01
L_Toe2_03 L_Toe2_02
L_Toe3_02 L_Toe3_01
L_Toe3_03 L_Toe3_02
planeLockWeightLeft planeAlignerLeft
R_Leg01 R_Hip
R_Leg02 R_Leg01
R_Leg03 R_Leg02
R_Foot R_Leg03
planeAlignerRight R_Foot
R_Toe1_01 R_Foot
R_Toe2_01 R_Foot
R_Toe3_01 R_Foot
planeLockWeightRight planeAlignerRight
R_Toe1_02 R_Toe1_01
R_Toe1_03 R_Toe1_02
R_Toe2_02 R_Toe2_01
R_Toe2_03 R_Toe2_02
R_Toe3_02 R_Toe3_01
R_Toe3_03 R_Toe3_02
Rear_Leg02 Rear_Leg01
Rear_Leg03 Rear_Leg02
Rear_Leg04 Rear_Leg03
Rear_Foot Rear_Leg04
planeAlignerCenter Rear_Foot
Rear_Toe1_01 Rear_Foot
Rear_Toe2_01 Rear_Foot
Rear_Toe3_01 Rear_Foot
planeLockWeightCenter planeAlignerCenter
Rear_Toe1_02 Rear_Toe1_01
Rear_Toe1_03 Rear_Toe1_02
Rear_Toe2_02 Rear_Toe2_01
Rear_Toe2_03 Rear_Toe2_02
Rear_Toe3_02 Rear_Toe3_01
Rear_Toe3_03 Rear_Toe3_02
Back_Bone Spine1
Head Spine1
Motor_Bone Back_Bone
Ping_Mechanism Back_Bone
BN_LookIK Head
bottomMouth Head
L_Mouth01 Head
L_mouthFront Head
mouthGun Head
R_Mouth01 Head
R_mouthFront Head
TopMouth Head
weapon_bone Head
[BasePosition]
#SegmentName Tx, Ty, Tz, Rx, Ry, Rz, BoneLength
Pinger_Root 0.000000 0.000000 0.000000 -90.000000 0.000000 0.000000 10.000000 
Pelvis 0.000000 0.000000 0.000000 0.000000 0.000000 0.000000 10.000000 
L_Hip 0.000000 0.000000 0.000000 0.000000 0.000000 0.000000 10.000000 
R_Hip 0.000000 0.000000 0.000000 0.000000 0.000000 0.000000 10.000000 
Rear_Leg01 0.000000 0.000000 0.000000 0.000000 0.000000 0.000000 10.000000 
Spine1 0.000000 0.000000 0.000000 0.000000 0.000000 0.000000 10.000000 
L_Leg01 0.000000 0.000000 0.000000 0.000000 0.000000 0.000000 10.000000 
L_Leg02 0.000000 0.000000 0.000000 0.000000 0.000000 0.000000 10.000000 
L_Leg03 0.000000 0.000000 0.000000 0.000000 0.000000 0.000000 10.000000 
L_Foot 0.000000 0.000000 0.000000 0.000000 0.000000 0.000000 10.000000 
L_Toe1_01 0.000000 0.000000 0.000000 0.000000 0.000000 0.000000 10.000000 
L_Toe2_01 0.000000 0.000000 0.000000 0.000000 0.000000 0.000000 10.000000 
L_Toe3_01 0.000000 0.000000 0.000000 0.000000 0.000000 0.000000 10.000000 
planeAlignerLeft 0.000000 0.000000 0.000000 0.000000 0.000000 0.000000 10.000000 
L_Toe1_02 0.000000 0.000000 0.000000 0.000000 0.000000 0.000000 10.000000 
L_Toe1_03 0.000000 0.000000 0.000000 0.000000 0.000000 0.000000 10.000000 
L_Toe2_02 0.000000 0.000000 0.000000 0.000000 0.000000 0.000000 10.000000 
L_Toe2_03 0.000000 0.000000 0.000000 0.000000 0.000000 0.000000 10.000000 
L_Toe3_02 0.000000 0.000000 0.000000 0.000000 0.000000 0.000000 10.000000 
L_Toe3_03 0.000000 0.000000 0.000000 0.000000 0.000000 0.000000 10.000000 
planeLockWeightLeft 0.000000 0.000000 0.000000 0.000000 0.000000 0.000000 10.000000 
R_Leg01 0.000000 0.000000 0.000000 0.000000 0.000000 0.000000 10.000000 
R_Leg02 0.000000 0.000000 0.000000 0.000000 0.000000 0.000000 10.000000 
R_Leg03 0.000000 0.000000 0.000000 0.000000 0.000000 0.000000 10.000000 
R_Foot 0.000000 0.000000 0.000000 0.000000 0.000000 0.000000 10.000000 
planeAlignerRight 0.000000 0.000000 0.000000 0.000000 0.000000 0.000000 10.000000 
R_Toe1_01 0.000000 0.000000 0.000000 0.000000 0.000000 0.000000 10.000000 
R_Toe2_01 0.000000 0.000000 0.000000 0.000000 0.000000 0.000000 10.000000 
R_Toe3_01 0.000000 0.000000 0.000000 0.000000 0.000000 0.000000 10.000000 
planeLockWeightRight 0.000000 0.000000 0.000000 0.000000 0.000000 0.000000 10.000000 
R_Toe1_02 0.000000 0.000000 0.000000 0.000000 0.000000 0.000000 10.000000 
R_Toe1_03 0.000000 0.000000 0.000000 0.000000 0.000000 0.000000 10.000000 
R_Toe2_02 0.000000 0.000000 0.000000 0.000000 0.000000 0.000000 10.000000 
R_Toe2_03 0.000000 0.000000 0.000000 0.000000 0.000000 0.000000 10.000000 
R_Toe3_02 0.000000 0.000000 0.000000 0.000000 0.000000 0.000000 10.000000 
R_Toe3_03 0.000000 0.000000 0.000000 0.000000 0.000000 0.000000 10.000000 
Rear_Leg02 0.000000 0.000000 0.000000 0.000000 0.000000 0.000000 10.000000 
Rear_Leg03 0.000000 0.000000 0.000000 0.000000 0.000000 0.000000 10.000000 
Rear_Leg04 0.000000 0.000000 0.000000 0.000000 0.000000 0.000000 10.000000 
Rear_Foot 0.000000 0.000000 0.000000 0.000000 0.000000 0.000000 10.000000 
planeAlignerCenter 0.000000 0.000000 0.000000 0.000000 0.000000 0.000000 10.000000 
Rear_Toe1_01 0.000000 0.000000 0.000000 0.000000 0.000000 0.000000 10.000000 
Rear_Toe2_01 0.000000 0.000000 0.000000 0.000000 0.000000 0.000000 10.000000 
Rear_Toe3_01 0.000000 0.000000 0.000000 0.000000 0.000000 0.000000 10.000000 
planeLockWeightCenter 0.000000 0.000000 0.000000 0.000000 0.000000 0.000000 10.000000 
Rear_Toe1_02 0.000000 0.000000 0.000000 0.000000 0.000000 0.000000 10.000000 
Rear_Toe1_03 0.000000 0.000000 0.000000 0.000000 0.000000 0.000000 10.000000 
Rear_Toe2_02 0.000000 0.000000 0.000000 0.000000 0.000000 0.000000 10.000000 
Rear_Toe2_03 0.000000 0.000000 0.000000 0.000000 0.000000 0.000000 10.000000 
Rear_Toe3_02 0.000000 0.000000 0.000000 0.000000 0.000000 0.000000 10.000000 
Rear_Toe3_03 0.000000 0.000000 0.000000 0.000000 0.000000 0.000000 10.000000 
Back_Bone 0.000000 0.000000 0.000000 0.000000 0.000000 0.000000 10.000000 
Head 0.000000 0.000000 0.000000 0.000000 0.000000 0.000000 10.000000 
Motor_Bone 0.000000 0.000000 0.000000 0.000000 0.000000 0.000000 10.000000 
Ping_Mechanism 0.000000 0.000000 0.000000 0.000000 0.000000 0.000000 10.000000 
BN_LookIK 0.000000 0.000000 0.000000 0.000000 0.000000 0.000000 10.000000 
bottomMouth 0.000000 0.000000 0.000000 0.000000 0.000000 0.000000 10.000000 
L_Mouth01 0.000000 0.000000 0.000000 0.000000 0.000000 0.000000 10.000000 
L_mouthFront 0.000000 0.000000 0.000000 0.000000 0.000000 0.000000 10.000000 
mouthGun 0.000000 0.000000 0.000000 0.000000 0.000000 0.000000 10.000000 
R_Mouth01 0.000000 0.000000 0.000000 0.000000 0.000000 0.000000 10.000000 
R_mouthFront 0.000000 0.000000 0.000000 0.000000 0.000000 0.000000 10.000000 
TopMouth 0.000000 0.000000 0.000000 0.000000 0.000000 0.000000 10.000000 
weapon_bone 0.000000 0.000000 0.000000 0.000000 0.000000 0.000000 10.000000 
#Beginning of Data. Separated by tabs
#Fr	Tx	Ty	Tz	Rx	Ry	Rz	SF
[Pinger_Root]
52 -6611.108887 0.000000 0.000000 -0.000075 -0.000000 -0.000020 6611.108887
53 -6740.737793 0.000000 0.000000 -0.000075 -0.000000 -0.000020 6740.737793
54 -6870.368164 0.000000 0.000000 -0.000075 -0.000000 -0.000020 6870.368164
[Pelvis]
52 -822.187195 410.390656 4996.103027 -104.183144 -72.425751 140.762299 5079.906738
53 -831.891296 347.454956 5015.996582 -101.842995 -73.033150 137.696030 5096.370117
54 -837.673523 272.801056 5037.847656 -101.339851 -75.215111 137.016800 5114.295898
[L_Hip]
52 5.766392 125.831482 872.656799 -178.250168 -81.786369 87.376007 881.701050
53 5.766392 125.831482 872.656799 -178.250168 -81.786369 87.376007 881.701050
54 5.766392 125.831482 872.656799 -178.250168 -81.786369 87.376007 881.701050
[R_Hip]
52 5.765438 125.836372 -872.654907 -1.748770 81.786041 87.376961 881.699829
53 5.765438 125.836372 -872.654907 -1.748770 81.786041 87.376961 881.699829
54 5.765438 125.836372 -872.654907 -1.748770 81.786041 87.376961 881.699829
[Rear_Leg01]
52 -192.298416 -925.602966 -0.001907 -170.055786 29.942055 -149.855774 945.367432
53 -192.298416 -925.602966 -0.001907 -173.420380 31.035892 -151.378220 945.367432
54 -192.298416 -925.602966 -0.001907 -177.238281 31.450193 -152.826721 945.367432
[Spine1]
52 290.604584 5.007505 0.000477 -21.707422 16.432911 9.223445 290.647736
53 290.604584 5.007505 0.000477 -20.949381 15.404297 10.046459 290.647736
54 290.604584 5.007505 0.000477 -20.709570 14.820471 12.376030 290.647736
[L_Leg01]
52 761.932007 -0.002384 -0.069261 59.340221 0.771749 -65.479286 761.932068
53 761.932007 -0.002384 -0.069261 59.754299 -1.004882 -67.223351 761.932068
54 761.932007 -0.002384 -0.069261 60.740688 -1.287001 -69.034973 761.932068
[L_Leg02]
52 1441.140503 -0.000954 -0.000715 -1.553827 0.517752 -79.477211 1441.140503
53 1441.140503 -0.000954 -0.000715 -1.523683 0.559022 -82.672935 1441.140503
54 1441.140503 -0.000954 -0.000715 -1.501121 0.597330 -85.201096 1441.140503
[L_Leg03]
52 1686.963989 -0.000715 -0.000954 0.042376 -0.011547 99.061874 1686.963989
53 1686.963989 -0.000715 -0.000954 0.048263 -0.012543 97.575470 1686.963989
54 1686.963989 -0.000715 -0.000954 0.054172 -0.013386 96.089287 1686.963989
[L_Foot]
52 3041.570068 -30.715107 11.297464 -25.886787 14.124297 69.044884 3041.746094
53 3041.570068 -30.715107 11.297464 -24.149445 15.263607 72.696381 3041.746094
54 3041.570068 -30.715107 11.297464 -22.218260 15.796974 75.750183 3041.746094
[L_Toe1_01]
52 -188.216690 -224.732346 -21.137953 89.389275 -1.968797 -163.197708 293.899567
53 -188.216690 -224.732346 -21.137953 89.500725 -2.596826 -164.379913 293.899567
54 -188.216690 -224.732346 -21.137953 89.639893 -3.148678 -165.159546 293.899567
[L_Toe2_01]
52 200.746536 -219.926590 148.838394 -78.043335 -14.332776 -42.847534 332.896027
53 200.746536 -219.926590 148.838394 -77.847862 -14.397766 -43.424782 332.896027
54 200.746536 -219.926590 148.838394 -77.651649 -14.460842 -44.002407 332.896027
[L_Toe3_01]
52 188.832520 -219.859131 -191.078659 -105.610802 17.743088 -44.802052 347.140900
53 188.832520 -219.859131 -191.078659 -105.394188 16.443609 -44.861450 347.140900
54 188.832520 -219.859131 -191.078659 -105.177551 15.144343 -44.925549 347.140900
[planeAlignerLeft]
52 -69.504913 -602.909546 1.041629 0.000000 -90.000000 -90.001900 606.903564
53 -41.899437 -604.530457 13.655716 0.000000 -90.000000 -90.001900 606.134521
54 -20.665686 -605.775146 23.356747 0.000000 -90.000000 -90.001900 606.577332
[L_Toe1_02]
52 413.761139 0.000477 0.000000 0.001398 -24.206816 0.001398 413.761139
53 413.761139 0.000477 0.000000 0.001404 -23.455330 0.001404 413.761139
54 413.761139 0.000477 0.000000 0.001410 -22.703873 0.001410 413.761139
[L_Toe1_03]
52 464.317322 0.000358 -0.000089 0.007637 72.320236 0.007637 464.317322
53 464.317322 0.000358 -0.000089 0.010145 76.713707 0.010145 464.317322
54 464.317322 0.000358 -0.000089 0.013269 79.851097 0.013269 464.317322
[L_Toe2_02]
52 342.235809 -0.000477 0.000238 0.003520 -79.451126 0.003520 342.235809
53 342.235809 -0.000477 0.000238 0.002351 -78.764725 0.002351 342.235809
54 342.235809 -0.000477 0.000238 0.001180 -78.078308 0.001180 342.235809
[L_Toe2_03]
52 420.210846 -0.000715 0.000000 -179.998795 67.895439 -179.995224 420.210846
53 420.210846 -0.000715 0.000000 -179.998047 72.203903 -179.994522 420.210846
54 420.210846 -0.000715 0.000000 -179.997131 75.720627 -179.993607 420.210846
[L_Toe3_02]
52 329.270111 0.000954 0.000000 0.001176 -82.998398 0.001176 329.270111
53 329.270111 0.000954 0.000000 0.001176 -82.625839 0.001176 329.270111
54 329.270111 0.000954 0.000000 0.001176 -82.253265 0.001176 329.270111
[L_Toe3_03]
52 439.137451 -0.001907 0.000954 179.995850 66.526848 -179.998795 439.137451
53 439.137451 -0.001907 0.000954 -179.998581 69.280426 -179.995041 439.137451
54 439.137451 -0.001907 0.000954 -179.998184 71.574715 -179.994644 439.137451
[planeLockWeightLeft]
52 999.999695 0.098267 0.076108 -0.011826 -0.004376 0.005620 999.999695
53 999.999695 0.098267 0.076100 -0.011826 -0.004376 0.005620 999.999695
54 999.999695 0.098267 0.076092 -0.011826 -0.004376 0.005620 999.999695
[R_Leg01]
52 761.455627 -0.001907 -0.000358 104.607704 -47.425175 69.903084 761.455688
53 761.455627 -0.001907 -0.000358 100.579155 -45.173397 69.728958 761.455688
54 761.455627 -0.001907 -0.000358 97.209206 -41.363136 69.656586 761.455688
[R_Leg02]
52 1441.140625 0.000000 -0.000238 0.175917 -0.054233 -109.195984 1441.140625
53 1441.140625 0.000000 -0.000238 0.181420 -0.057467 -106.416786 1441.140625
54 1441.140625 0.000000 -0.000238 0.190445 -0.032986 -103.290382 1441.140625
[R_Leg03]
52 1686.963989 0.000954 0.001431 -0.038851 0.010446 100.064888 1686.963989
53 1686.963989 0.000954 0.001431 -0.038909 0.010229 99.424545 1686.963989
54 1686.963989 0.000954 0.001431 -0.046010 0.010248 98.049500 1686.963989
[R_Foot]
52 3041.560059 -30.531288 -11.204481 14.556214 -17.508524 61.385822 3041.734131
53 3041.560059 -30.531288 -11.204481 16.841379 -19.739801 60.197346 3041.734131
54 3041.560059 -30.531288 -11.204481 19.071295 -21.337187 59.397778 3041.734131
[planeAlignerRight]
52 -0.394592 -699.276001 -0.628357 0.000000 -89.960434 -90.005180 699.276367
53 -0.389710 -687.403992 -0.619507 0.000000 -89.960434 -90.005180 687.404358
54 -0.386658 -682.975281 -0.616455 0.000000 -89.960434 -90.005180 682.975708
[R_Toe1_01]
52 -188.383347 -224.864899 21.052242 90.742775 1.963470 -158.688507 294.101532
53 -188.383347 -224.864899 21.052242 90.718010 1.974654 -159.645493 294.101532
54 -188.383347 -224.864899 21.052242 90.689453 1.977259 -159.997711 294.101532
[R_Toe2_01]
52 200.637817 -220.002121 -148.787384 -103.366806 11.182735 -50.907249 332.857574
53 200.637817 -220.002121 -148.787384 -103.210281 11.383433 -50.032818 332.857574
54 200.637817 -220.002121 -148.787384 -103.130196 11.458777 -49.698948 332.857574
[R_Toe3_01]
52 188.606735 -220.092957 191.126343 -72.567390 -13.781374 -52.789799 347.192566
53 188.606735 -220.092957 191.126343 -72.796127 -14.052397 -51.912853 347.192566
54 188.606735 -220.092957 191.126343 -72.855278 -14.150388 -51.584217 347.192566
[planeLockWeightRight]
52 999.999695 -0.000032 0.076170 -0.011823 -0.004379 -0.000027 999.999695
53 999.999695 -0.000021 0.076163 -0.011823 -0.004379 -0.000027 999.999695
54 999.999695 -0.000011 0.076157 -0.011823 -0.004379 -0.000027 999.999695
[R_Toe1_02]
52 413.762085 0.000477 -0.000119 0.001402 -23.668430 0.001402 413.762085
53 413.762085 0.000477 -0.000119 0.001404 -23.360016 0.001404 413.762085
54 413.762085 0.000477 -0.000119 0.001404 -23.375162 0.001404 413.762085
[R_Toe1_03]
52 464.317810 0.000000 0.001088 0.009455 75.739426 0.009455 464.317810
53 464.317810 0.000000 0.001088 0.010193 76.776863 0.010193 464.317810
54 464.317810 0.000000 0.001088 0.010493 77.155922 0.010493 464.317810
[R_Toe2_02]
52 342.234741 -0.000954 0.000238 -0.002343 -75.078911 -0.002343 342.234741
53 342.234741 -0.000954 0.000238 -0.002342 -75.341370 -0.002342 342.234741
54 342.234741 -0.000954 0.000238 -0.002342 -75.603760 -0.002342 342.234741
[R_Toe2_03]
52 420.210846 0.000715 -0.000268 -179.978729 86.626633 -179.982224 420.210846
53 420.210846 0.000715 -0.000268 -179.984024 85.368790 -179.987518 420.210846
54 420.210846 0.000715 -0.000268 -179.985321 84.905457 -179.988815 420.210846
[R_Toe3_02]
52 329.270355 -0.000477 -0.000954 0.001179 -78.925255 0.001179 329.270355
53 329.270355 -0.000477 -0.000954 0.001179 -79.357582 0.001179 329.270355
54 329.270355 -0.000477 -0.000954 0.001179 -79.344765 0.001179 329.270355
[R_Toe3_03]
52 439.137939 0.000238 0.001431 -179.990982 83.884071 -179.987488 439.137939
53 439.137939 0.000238 0.001431 -179.992706 82.712555 -179.989197 439.137939
54 439.137939 0.000238 0.001431 -179.993225 82.284973 -179.989700 439.137939
[Rear_Leg02]
52 1162.777710 -0.029802 0.005960 12.349861 -30.835894 -76.391090 1162.777710
53 1162.777710 -0.029802 0.005960 17.508698 -27.470989 -83.711746 1162.777710
54 1162.777710 -0.029802 0.005960 21.608545 -23.623920 -91.010490 1162.777710
[Rear_Leg03]
52 607.192505 -0.013351 -0.073195 0.010511 -0.005067 67.831985 607.192505
53 607.192505 -0.013351 -0.073195 0.010357 -0.005375 71.209320 607.192505
54 607.192505 -0.013351 -0.073195 0.010218 -0.005634 74.094589 607.192505
[Rear_Leg04]
52 995.874512 -0.020504 -0.011921 -0.039908 -0.019400 65.511360 995.874573
53 995.874512 -0.020504 -0.011921 -0.042675 -0.018734 73.127670 995.874573
54 995.874512 -0.020504 -0.011921 -0.045330 -0.017707 80.744011 995.874573
[Rear_Foot]
52 3096.176270 -0.067472 -0.041425 -42.623096 40.691647 102.527977 3096.176270
53 3096.176270 -0.067472 -0.041425 -41.089432 40.755104 101.541946 3096.176270
54 3096.176270 -0.067472 -0.041425 -39.046555 40.425880 100.156944 3096.176270
[planeAlignerCenter]
52 -8.483804 195.003952 -764.829285 0.000009 0.000003 -179.999985 789.342957
53 -4.828269 219.530075 -763.371155 0.000009 0.000003 -179.999985 794.325073
54 -1.482913 237.854279 -762.313843 0.000009 0.000003 -179.999985 798.560730
[Rear_Toe1_01]
52 0.653352 83.966492 -371.173737 0.105216 47.660851 90.050606 380.553192
53 0.653352 83.966492 -371.173737 0.100904 42.165863 90.051048 380.553192
54 0.653352 83.966492 -371.173737 0.105603 39.709557 90.048706 380.553192
[Rear_Toe2_01]
52 178.200760 -294.826019 -362.060547 6.205871 63.794228 -64.012344 499.765686
53 178.200760 -294.826019 -362.060547 19.278437 78.022682 -51.246143 499.765686
54 178.200760 -294.826019 -362.060547 56.813057 84.554466 -13.879227 499.765686
[Rear_Toe3_01]
52 -153.359680 -308.780914 -362.060852 -7.182618 63.707150 -119.237701 499.952881
53 -153.359680 -308.780914 -362.060852 -21.708698 77.723030 -133.402451 499.952881
54 -153.359680 -308.780914 -362.060852 -59.108410 83.932533 -170.606110 499.952881
[planeLockWeightCenter]
52 0.000000 -0.000153 0.076370 -0.011814 -0.004373 -0.000015 0.076370
53 0.000000 -0.000203 0.076345 -0.011814 -0.004373 -0.000015 0.076345
54 0.000000 -0.000254 0.076319 -0.011814 -0.004373 -0.000015 0.076320
[Rear_Toe1_02]
52 379.707825 0.194073 0.000477 -0.000767 -33.624729 0.000838 379.707855
53 379.707825 0.194073 0.000477 -0.000767 -33.624729 0.000838 379.707855
54 379.707825 0.194073 0.000477 -0.000767 -33.624729 0.000838 379.707855
[Rear_Toe1_03]
52 500.129700 0.165701 0.000119 0.020719 83.505440 0.020719 500.129761
53 500.129700 0.165701 0.000119 -179.975235 87.137680 -179.978745 500.129761
54 500.129700 0.165701 0.000119 -179.986435 84.423706 -179.989944 500.129761
[Rear_Toe2_02]
52 340.494507 0.000238 -0.000954 179.998825 -87.872284 179.998825 340.494507
53 340.494507 0.000238 -0.000954 179.998825 -87.153389 179.998825 340.494507
54 340.494507 0.000238 -0.000954 179.998825 -87.252419 179.998825 340.494507
[Rear_Toe2_03]
52 433.103577 0.000000 0.000238 -179.996094 57.911469 -179.999741 433.103546
53 433.103577 0.000000 0.000238 -179.996277 54.457787 -179.999954 433.103546
54 433.103577 0.000000 0.000238 -179.996216 55.673550 -179.999878 433.103546
[Rear_Toe3_02]
52 340.494141 -0.000358 -0.000477 -179.997681 -87.940910 -179.997681 340.494171
53 340.494141 -0.000358 -0.000477 -179.994171 -87.201027 -179.994171 340.494171
54 340.494141 -0.000358 -0.000477 -179.994171 -87.300201 -179.994171 340.494171
[Rear_Toe3_03]
52 433.103577 0.001431 -0.000238 -179.999725 58.233894 -179.996094 433.103546
53 433.103577 0.001431 -0.000238 179.992447 54.730492 179.999802 433.103546
54 433.103577 0.001431 -0.000238 179.992340 55.919777 179.999649 433.103546
[Back_Bone]
52 1312.175781 -701.934692 0.000954 -2.394412 2.513105 -83.853050 1488.125488
53 1312.175781 -701.934692 0.000954 -2.649597 2.005941 -83.663635 1488.125488
54 1312.175781 -701.934692 0.000954 -2.764033 1.717784 -83.953346 1488.125488
[Head]
52 1406.159424 809.709290 0.001431 -9.466712 7.641675 2.641073 1622.625488
53 1406.159424 809.709290 0.001431 -9.656070 7.686417 2.422722 1622.625488
54 1406.159424 809.709290 0.001431 -9.845621 7.730446 2.204201 1622.625488
[Motor_Bone]
52 1158.364380 -417.834747 0.000477 -0.003510 -1.410939 -107.395241 1231.419434
53 1158.364380 -417.834747 0.000477 5.387031 -2.893384 -108.880913 1231.419434
54 1158.364380 -417.834747 0.000477 1.328373 -1.434140 -107.312431 1231.419434
[Ping_Mechanism]
52 1280.558960 -455.830841 -54.830841 0.000103 -0.000053 82.120995 1360.374756
53 1280.908447 -458.494812 -48.907608 0.000103 -0.000053 82.120995 1361.372803
54 1272.483643 -456.335785 -43.383282 0.000103 -0.000053 82.120995 1352.530518
[BN_LookIK]
52 193.241119 1380.371704 -0.002861 0.000000 89.965736 -31.038179 1393.832153
53 193.241119 1380.371704 -0.002861 0.000000 89.965736 -31.038179 1393.832153
54 193.241119 1380.371704 -0.002861 0.000000 89.965736 -31.038179 1393.832153
[bottomMouth]
52 -435.092926 615.759399 -0.000954 -0.000022 0.000016 73.527184 753.966492
53 -435.092926 615.759399 -0.000954 -0.000022 0.000016 73.527184 753.966492
54 -435.092926 615.759399 -0.000954 -0.000022 0.000016 73.527184 753.966492
[L_Mouth01]
52 554.440979 7.658243 838.222046 150.204178 23.759130 109.605339 1005.027161
53 554.440979 7.658243 838.222046 150.204178 23.759130 109.605339 1005.027161
54 554.440979 7.658243 838.222046 150.204178 23.759130 109.605339 1005.027161
[L_mouthFront]
52 551.629089 934.514771 339.150421 0.000081 2.804060 79.119301 1136.941284
53 551.629089 934.514771 339.150421 0.000081 2.804060 79.119301 1136.941284
54 551.629089 934.514771 339.150421 0.000081 2.804060 79.119301 1136.941284
[mouthGun]
52 55.332661 1627.420898 0.000000 0.000023 0.000009 -11.038128 1628.361328
53 55.332661 1627.420898 0.000000 0.000023 0.000009 -11.038128 1628.361328
54 55.332661 1627.420898 0.000000 0.000023 0.000009 -11.038128 1628.361328
[R_Mouth01]
52 554.442383 7.659197 -838.223938 29.795891 -23.759109 109.605331 1005.029541
53 554.442383 7.659197 -838.223938 29.795891 -23.759109 109.605331 1005.029541
54 554.442383 7.659197 -838.223938 29.795891 -23.759109 109.605331 1005.029541
[R_mouthFront]
52 551.629089 934.514282 -339.151367 0.000029 -2.803930 79.119133 1136.941162
53 551.629089 934.514282 -339.151367 0.000029 -2.803930 79.119133 1136.941162
54 551.629089 934.514282 -339.151367 0.000029 -2.803930 79.119133 1136.941162
[TopMouth]
52 461.269867 -56.106091 -0.008583 -0.000059 -0.000268 92.025169 464.669525
53 461.269867 -56.106091 -0.008583 -0.000059 -0.000268 92.025169 464.669525
54 461.269867 -56.106091 -0.008583 -0.000059 -0.000268 92.025169 464.669525
[weapon_bone]
52 -987.239868 1448.372803 0.001431 0.000000 89.965736 -31.038221 1752.833740
53 -987.239868 1448.372803 0.001431 0.000000 89.965736 -31.038221 1752.833740
54 -987.239868 1448.372803 0.001431 0.000000 89.965736 -31.038221 1752.833740
